<?xml version="1.0" encoding="UTF-8"?>
<svg width="643px" height="643px" viewBox="0 0 643 643" version="1.1" xmlns="http://www.w3.org/2000/svg" xmlns:xlink="http://www.w3.org/1999/xlink">
    <title>1024x1024@1x</title>
    <g id="1024x1024" stroke="none" stroke-width="1" fill="none" fill-rule="evenodd">
        <g id="image2vector" transform="translate(122, 12)" fill="#FF4257">
            <path d="M192.720028,0.988904823 C190.515028,1.64690482 187.218028,2.96190482 185.396028,3.91190482 C183.573028,4.86190482 181.732028,5.72890482 181.304028,5.83890482 C179.640028,6.26590482 172.120028,16.5589048 170.535028,20.5789048 C168.485028,25.7799048 167.770028,77.5179048 167.751028,222.113905 L167.738028,316.378905 L164.770028,319.555905 C160.066028,324.591905 152.633028,323.527905 149.076028,317.309905 C148.070028,315.551905 147.677028,288.473905 147.278028,193.321905 L146.766028,71.5829048 L144.417028,66.6759048 C133.009028,42.8459048 100.492028,43.5529048 88.6950277,67.8889048 L86.4080277,72.6059048 L85.8970277,212.080905 L85.3850277,351.555905 L82.5150277,354.023905 C78.3020277,357.646905 72.3510277,357.426905 68.4270277,353.502905 L65.4360277,350.512905 L65.4360277,256.217905 C65.4360277,174.715905 65.2240277,161.194905 63.8750277,156.552905 C52.9910277,119.112905 4.43902769,125.684905 0.95702769,165.068905 C-0.34697231,179.820905 -0.30597231,424.270905 1.00402769,442.710905 C9.50102769,562.349905 139.816028,647.141905 259.233028,610.732905 C301.867028,597.734905 349.135028,562.208905 369.325028,527.989905 C370.533028,525.942905 371.935028,524.267905 372.443028,524.267905 C372.950028,524.267905 373.275028,523.922905 373.165028,523.500905 C373.056028,523.078905 376.025028,516.518905 379.764028,508.922905 C390.408028,487.299905 396.432028,467.475905 398.896028,445.965905 C400.318028,433.549905 400.326028,269.348905 398.904028,264.230905 C394.914028,249.864905 359.428028,252.939905 345.083028,268.894905 C335.667028,279.367905 334.798028,283.437905 333.923028,321.198905 C333.144028,354.809905 330.833028,364.784905 319.561028,383.181905 C304.459028,407.829905 280.921028,421.774905 240.372028,430.099905 C168.821028,444.789905 129.017028,477.146905 115.723028,531.428905 C111.656028,548.035905 110.387028,549.843905 102.797028,549.843905 C89.6070277,549.843905 90.9110277,528.471905 105.939028,498.350905 C130.209028,449.702905 168.563028,422.991905 230.915028,411.312905 C278.079028,402.478905 300.657028,385.581905 310.449028,351.789905 L313.026028,342.898905 L313.022028,208.718905 C313.018028,57.9489048 313.612028,69.2409048 305.191028,59.8759048 C292.884028,46.1869048 272.555028,45.8009048 259.938028,59.0149048 C251.572028,67.7769048 252.203028,57.3739048 251.627028,195.878905 L251.114028,319.152905 L247.928028,325.875905 C244.114028,333.925905 238.864028,338.595905 227.999028,343.602905 C221.186028,346.741905 150.429028,376.580905 128.821028,385.426905 C113.085028,391.868905 64.0070277,412.508905 57.9900277,415.214905 C48.8520277,419.325905 42.3150277,418.494905 39.3980277,412.853905 C34.6260277,403.625905 37.9790277,400.629905 65.9480277,389.134905 C78.3260277,384.047905 98.8120277,375.497905 111.472028,370.135905 C124.132028,364.773905 138.173028,358.860905 142.674028,356.994905 C160.524028,349.596905 212.538028,327.527905 217.354028,325.308905 C223.521028,322.466905 227.828028,318.509905 229.744028,313.923905 C230.934028,311.076905 231.165028,287.354905 231.165028,168.267905 L231.165028,26.0139048 L228.251028,19.5859048 C221.769028,5.29190482 205.991028,-2.96709518 192.720028,0.988904823" id="path0"></path>
        </g>
    </g>
</svg>